<svg fill="none" height="192" viewBox="0 0 192 192" width="192" xmlns="http://www.w3.org/2000/svg"><path d="m150.46 39.4338c5.181 5.0378 8.545 11.6522 9.563 18.8066 1.018 7.1545-.366 14.4446-3.936 20.7279-3.57 6.2832-9.123 11.2045-15.791 13.9925-6.667 2.788-14.07 3.2851-21.05 1.4135s-13.142-6.0062-17.52-11.7558c-18.2796-24.0073-55.5047-30.9207-79.7121-7.004 23.0989-31.9994 91.8361-71.77787 128.4461-36.1807z" fill="#23ec68"/><path d="m42.0958 153.529c-5.1811-5.037-8.5444-11.652-9.5627-18.806-1.0182-7.155.366-14.445 3.9359-20.728 3.5698-6.283 9.1235-11.205 15.7906-13.993 6.6671-2.7876 14.0708-3.2848 21.0508-1.4132 6.98 1.8712 13.1417 6.0062 17.5196 11.7562 18.28 24.007 55.505 30.92 79.712 7.004-23.099 31.999-91.8359 71.778-128.4462 36.18z" fill="#23a4ec"/></svg>